<svg xmlns="http://www.w3.org/2000/svg" viewBox="0 0 256 256" width="100%" height="100%"><defs><linearGradient id="appleGrad" x1="0%" y1="0%" x2="100%" y2="100%"><stop offset="0%" stop-color="#4A90E2"/><stop offset="100%" stop-color="#50E3C2"/></linearGradient><filter id="shadow" x="-20%" y="-20%" width="140%" height="140%"><feDropShadow dx="0" dy="8" stdDeviation="12" flood-color="#000000" flood-opacity="0.2"/></filter></defs><rect width="224" height="224" rx="52" fill="url(#appleGrad)" x="16" y="16" filter="url(#shadow)"/><rect x="16" y="16" width="224" height="224" rx="52" fill="none" stroke="#ffffff" stroke-opacity="0.4" stroke-width="2"/><g transform="translate(48, 56)"><rect x="24" y="24" width="112" height="96" rx="24" fill="#ffffff" fill-opacity="0.9" filter="url(#shadow)"/><circle cx="56" cy="60" r="12" fill="#4A90E2"/><circle cx="104" cy="60" r="12" fill="#4A90E2"/><path d="M 56 96 C 72 104, 88 104, 104 96" stroke="#4A90E2" stroke-width="6" stroke-linecap="round" fill="none"/><circle cx="80" cy="0" r="12" fill="#ffffff"/><rect x="76" y="12" width="8" height="16" fill="#ffffff"/></g><path d="M 64 190 L 88 174 L 64 158" stroke="#ffffff" stroke-width="8" stroke-linecap="round" stroke-linejoin="round" fill="none"/><path d="M 192 190 L 168 174 L 192 158" stroke="#ffffff" stroke-width="8" stroke-linecap="round" stroke-linejoin="round" fill="none"/></svg>